<svg width="25" height="24" viewBox="0 0 25 24" fill="none" xmlns="http://www.w3.org/2000/svg">
<path d="M20.5 4H4.5C3.39 4 2.5 4.89 2.5 6V18C2.5 18.5304 2.71071 19.0391 3.08579 19.4142C3.46086 19.7893 3.96957 20 4.5 20H20.5C21.61 20 22.5 19.11 22.5 18V6C22.5 5.46957 22.2893 4.96086 21.9142 4.58579C21.5391 4.21071 21.0304 4 20.5 4ZM15.5 10H11.5V11H14.5C15.05 11 15.5 11.45 15.5 12V15C15.5 15.55 15.05 16 14.5 16H13.5V17H11.5V16H9.5V14H13.5V13H10.5C9.95 13 9.5 12.55 9.5 12V9C9.5 8.45 9.95 8 10.5 8H11.5V7H13.5V8H15.5V10Z" fill="#7A99AC"/>
</svg>
