<svg width="48" height="48" viewBox="0 0 48 48" fill="none" xmlns="http://www.w3.org/2000/svg">
<path d="M38.3203 4.5H9.67969C6.82362 4.5 4.5 6.82362 4.5 9.67969V31.0078C4.5 32.5199 5.7301 33.75 7.24219 33.75H12.4219V40.7578C12.4219 42.2699 13.652 43.5 15.1641 43.5H40.7578C42.2699 43.5 43.5 42.2699 43.5 40.7578V9.67969C43.5 6.82362 41.1764 4.5 38.3203 4.5ZM12.4219 31.3125H7.24219C7.07415 31.3125 6.9375 31.1758 6.9375 31.0078V9.67969C6.9375 8.1676 8.1676 6.9375 9.67969 6.9375C11.1918 6.9375 12.4219 8.1676 12.4219 9.67969V31.3125ZM28.875 32.6626V33.1062C28.875 33.7624 28.3707 34.3271 27.7152 34.358C27.0153 34.391 26.4375 33.8333 26.4375 33.1406V32.6643C26.4375 32.4971 26.3278 32.3513 26.1685 32.3007C24.4663 31.76 23.1579 30.3121 22.849 28.4668C22.7379 27.803 23.186 27.1747 23.8498 27.0636C24.5139 26.9522 25.1419 27.4005 25.253 28.0644C25.4592 29.2958 26.558 30.1737 27.8271 30.088C29.0261 30.0069 29.9992 29.0375 30.087 27.8389C30.1916 26.4127 29.0607 25.2188 27.6562 25.2188C24.9681 25.2188 22.7812 23.0319 22.7812 20.3438C22.7812 18.1737 24.2065 16.3303 26.1701 15.7004C26.3287 15.6495 26.4375 15.5039 26.4375 15.3374V14.8939C26.4375 14.2377 26.9418 13.673 27.5973 13.6421C28.2972 13.609 28.875 14.1667 28.875 14.8594V15.3357C28.875 15.5029 28.9847 15.6487 29.144 15.6993C30.8462 16.24 32.1546 17.6879 32.4635 19.5332C32.5746 20.197 32.1265 20.8253 31.4627 20.9364C30.7985 21.048 30.1705 20.5995 30.0595 19.9356C29.8533 18.7042 28.7545 17.8263 27.4854 17.912C26.2864 17.9931 25.3133 18.9625 25.2255 20.1611C25.1209 21.5873 26.2518 22.7812 27.6562 22.7812C30.3444 22.7812 32.5312 24.9681 32.5312 27.6562C32.5312 29.8263 31.106 31.6697 29.1424 32.2996C28.9838 32.3505 28.875 32.4961 28.875 32.6626Z" fill="#7A99AC"/>
</svg>
