<svg width="56" height="56" viewBox="0 0 56 56" fill="none" xmlns="http://www.w3.org/2000/svg">
<path d="M28.0007 4.66663C35.724 4.66663 42.0007 10.8733 42.0007 18.55C42.0007 28.9566 28.0007 44.3333 28.0007 44.3333C28.0007 44.3333 14.0007 28.9566 14.0007 18.55C14.0007 10.8733 20.2773 4.66663 28.0007 4.66663ZM28.0007 14C26.763 14 25.576 14.4916 24.7008 15.3668C23.8257 16.242 23.334 17.4289 23.334 18.6666C23.334 19.9043 23.8257 21.0913 24.7008 21.9665C25.576 22.8416 26.763 23.3333 28.0007 23.3333C29.2383 23.3333 30.4253 22.8416 31.3005 21.9665C32.1757 21.0913 32.6673 19.9043 32.6673 18.6666C32.6673 17.4289 32.1757 16.242 31.3005 15.3668C30.4253 14.4916 29.2383 14 28.0007 14ZM46.6673 44.3333C46.6673 49.49 38.314 53.6666 28.0007 53.6666C17.6873 53.6666 9.33398 49.49 9.33398 44.3333C9.33398 41.3233 12.1807 38.64 16.5907 36.9366L18.084 39.06C15.564 40.11 14.0007 41.5566 14.0007 43.1666C14.0007 46.3866 20.2773 49 28.0007 49C35.724 49 42.0007 46.3866 42.0007 43.1666C42.0007 41.5566 40.4373 40.11 37.9173 39.06L39.4107 36.9366C43.8207 38.64 46.6673 41.3233 46.6673 44.3333Z" fill="#7A99AC"/>
</svg>
