<svg width="56" height="56" viewBox="0 0 56 56" fill="none" xmlns="http://www.w3.org/2000/svg">
<path d="M46.666 9.33337H9.33268C6.74268 9.33337 4.66602 11.41 4.66602 14V42C4.66602 43.2377 5.15768 44.4247 6.03285 45.2999C6.90802 46.175 8.09501 46.6667 9.33268 46.6667H46.666C49.256 46.6667 51.3327 44.59 51.3327 42V14C51.3327 12.7624 50.841 11.5754 49.9659 10.7002C49.0907 9.82504 47.9037 9.33337 46.666 9.33337ZM34.9994 23.3334H25.666V25.6667H32.666C33.9494 25.6667 34.9994 26.7167 34.9994 28V35C34.9994 36.2834 33.9494 37.3334 32.666 37.3334H30.3327V39.6667H25.666V37.3334H20.9993V32.6667H30.3327V30.3334H23.3327C22.0494 30.3334 20.9993 29.2834 20.9993 28V21C20.9993 19.7167 22.0494 18.6667 23.3327 18.6667H25.666V16.3334H30.3327V18.6667H34.9994V23.3334Z" fill="#7A99AC"/>
</svg>
