<svg width="25" height="24" viewBox="0 0 25 24" fill="none" xmlns="http://www.w3.org/2000/svg">
<path d="M12.5 2C15.81 2 18.5 4.66 18.5 7.95C18.5 12.41 12.5 19 12.5 19C12.5 19 6.5 12.41 6.5 7.95C6.5 4.66 9.19 2 12.5 2ZM12.5 6C11.9696 6 11.4609 6.21071 11.0858 6.58579C10.7107 6.96086 10.5 7.46957 10.5 8C10.5 8.53043 10.7107 9.03914 11.0858 9.41421C11.4609 9.78929 11.9696 10 12.5 10C13.0304 10 13.5391 9.78929 13.9142 9.41421C14.2893 9.03914 14.5 8.53043 14.5 8C14.5 7.46957 14.2893 6.96086 13.9142 6.58579C13.5391 6.21071 13.0304 6 12.5 6ZM20.5 19C20.5 21.21 16.92 23 12.5 23C8.08 23 4.5 21.21 4.5 19C4.5 17.71 5.72 16.56 7.61 15.83L8.25 16.74C7.17 17.19 6.5 17.81 6.5 18.5C6.5 19.88 9.19 21 12.5 21C15.81 21 18.5 19.88 18.5 18.5C18.5 17.81 17.83 17.19 16.75 16.74L17.39 15.83C19.28 16.56 20.5 17.71 20.5 19Z" fill="#7A99AC"/>
</svg>
